<svg version="1.1" id="Layer_1" xmlns="http://www.w3.org/2000/svg" xmlns:xlink="http://www.w3.org/1999/xlink" x="0px" y="0px"
	 width="180" height="180" viewBox="0 0 592 528" enable-background="new 0 0 592 528" xml:space="preserve">
<rect width="100%" height="100%" fill="transparent"/>
<path fill="#000000" opacity="1.000000" stroke="none" 
	d="
M282.936554,85.499069 
	C284.828308,105.261932 277.017578,118.520676 260.774048,122.536339 
	C248.609818,125.543526 237.373383,123.024963 228.963455,113.310875 
	C220.476730,103.508095 218.093201,92.114746 223.370651,79.841705 
	C228.653687,67.555679 238.592636,61.542450 251.538681,60.817818 
	C266.327942,59.990025 278.446136,69.727570 282.936554,85.499069 
z"/>
<path fill="#000000" opacity="1.000000" stroke="none" 
	d="
M337.173889,478.238892 
	C319.194702,474.967926 309.774841,466.272858 307.595642,451.323486 
	C305.163513,434.639221 314.970001,420.205872 331.465607,416.191162 
	C347.786774,412.218872 364.209259,421.951508 368.768219,438.298187 
	C373.391113,454.873962 364.217804,471.797974 347.923309,476.617554 
	C344.578888,477.606812 341.160553,478.394135 337.173889,478.238892 
z"/>
<path fill="#000000" opacity="1.000000" stroke="none" 
	d="
M126.663239,341.065796 
	C107.341331,345.917633 91.268692,336.943085 86.326912,318.877930 
	C81.865715,302.569550 92.189629,284.930237 108.554459,280.900299 
	C126.261917,276.539703 143.576614,286.842926 147.276459,303.942139 
	C150.833511,320.381561 143.203079,334.339355 126.663239,341.065796 
z"/>
<path fill="#000000" opacity="1.000000" stroke="none" 
	d="
M472.227783,196.776001 
	C486.277405,197.115067 497.025208,202.450546 502.617798,215.344391 
	C507.920013,227.568893 506.166016,239.189651 497.379517,249.348129 
	C488.695465,259.388123 473.347870,262.375214 460.741791,256.819244 
	C448.865265,251.584854 441.521698,238.402725 442.728668,224.484665 
	C443.811249,212.000595 453.683502,200.865372 466.393433,197.837616 
	C468.171631,197.414001 469.986816,197.145508 472.227783,196.776001 
z"/>
<path fill="#000000" opacity="1.000000" stroke="none" 
	d="
M446.376068,132.065247 
	C463.762207,124.406052 482.756317,134.502594 484.043884,155.309113 
	C484.738312,166.530792 475.494263,177.566620 463.178528,180.615967 
	C452.454987,183.271088 440.025665,177.377106 435.155365,167.327362 
	C428.576447,153.751877 432.558777,140.906311 446.376068,132.065247 
z"/>
<path fill="#000000" opacity="1.000000" stroke="none" 
	d="
M154.038727,398.878754 
	C146.334381,408.614777 136.154205,412.230713 125.658745,409.181824 
	C115.363670,406.191132 108.025574,397.053864 106.851601,385.763367 
	C105.559509,373.336914 116.467125,359.968658 128.949432,358.680481 
	C144.085220,357.118439 156.926514,366.705627 158.337234,380.531189 
	C159.000778,387.033966 158.023209,393.107300 154.038727,398.878754 
z"/>
<path fill="#000000" opacity="1.000000" stroke="none" 
	d="
M403.127686,455.253632 
	C387.634430,447.695465 381.799622,433.629059 388.094269,419.803833 
	C393.233978,408.515228 406.069397,402.455322 417.988434,405.690125 
	C430.595947,409.111816 438.668243,421.007416 437.282715,434.122894 
	C436.022858,446.048584 425.208954,455.941711 412.847321,456.440704 
	C409.684845,456.568420 406.517365,456.600891 403.127686,455.253632 
z"/>
<path fill="#000000" opacity="1.000000" stroke="none" 
	d="
M435.062317,314.645630 
	C427.553680,296.591156 436.715027,280.095703 455.457642,277.266144 
	C467.843170,275.396362 480.867554,285.309235 483.274872,298.437988 
	C485.578430,311.000641 478.744659,322.874390 466.646667,327.329620 
	C454.599915,331.766022 442.244080,326.909241 435.062317,314.645630 
z"/>
<path fill="#000000" opacity="1.000000" stroke="none" 
	d="
M283.471527,447.414856 
	C275.430206,456.178467 265.824036,458.805603 255.110855,455.012421 
	C244.534943,451.267853 239.177505,442.908966 237.892426,431.924164 
	C236.656097,421.355988 244.985062,409.583496 256.057953,406.066132 
	C267.373718,402.471680 280.149109,407.288208 285.927917,417.327606 
	C291.652496,427.272766 290.855804,438.033722 283.471527,447.414856 
z"/>
<path fill="#000000" opacity="1.000000" stroke="none" 
	d="
M345.544128,126.532379 
	C337.689514,134.246384 328.622681,136.577713 318.657501,133.183151 
	C309.127228,129.936737 303.369354,122.931458 301.505798,112.870399 
	C299.090332,99.829597 307.406555,87.023163 320.563354,83.656334 
	C333.578247,80.325821 347.034210,87.624512 351.247131,100.352173 
	C354.450500,110.029846 352.667053,118.694405 345.544128,126.532379 
z"/>
<path fill="#000000" opacity="1.000000" stroke="none" 
	d="
M153.728928,112.566910 
	C153.388535,96.282349 160.278519,86.607361 174.170700,83.367493 
	C188.596863,80.003098 202.470047,90.336998 205.061981,106.377869 
	C207.156113,119.337852 195.468826,133.435013 181.865341,134.357590 
	C167.467361,135.334061 157.868973,128.043411 153.728928,112.566910 
z"/>
<path fill="#000000" opacity="1.000000" stroke="none" 
	d="
M119.004013,258.182678 
	C110.093575,251.652161 105.629677,243.184860 107.300858,232.543518 
	C108.966431,221.937958 115.547623,214.905487 125.847214,211.774796 
	C136.735947,208.464996 148.821564,213.389816 154.767822,223.229019 
	C160.781387,233.179581 159.500397,245.849152 151.639709,254.167496 
	C143.564468,262.712891 131.333801,264.795654 121.047745,259.371582 
	C120.459946,259.061646 119.894905,258.708527 119.004013,258.182678 
z"/>
<path fill="#000000" opacity="1.000000" stroke="none" 
	d="
M402.170258,94.615753 
	C406.269287,86.876663 412.545380,83.371536 420.741608,84.051453 
	C428.312592,84.679497 434.257050,90.031593 436.106873,97.073723 
	C438.102692,104.671677 436.354004,111.263969 430.259064,116.346786 
	C424.190277,121.407799 414.726715,121.653793 408.373383,117.189461 
	C401.486206,112.349991 399.170746,104.283424 402.170258,94.615753 
z"/>
<path fill="#000000" opacity="1.000000" stroke="none" 
	d="
M155.759491,191.862274 
	C152.669678,182.606079 154.270142,175.058838 160.127365,170.188889 
	C166.121185,165.205429 174.108093,164.294525 180.586792,167.855530 
	C187.055908,171.411270 191.166443,179.284683 190.142075,186.157959 
	C188.905685,194.453842 183.547531,199.997620 174.977036,201.848343 
	C167.780014,203.402481 160.584656,199.769135 155.759491,191.862274 
z"/>
<path fill="#000000" opacity="1.000000" stroke="none" 
	d="
M404.238892,344.417114 
	C411.969238,335.893250 423.839294,335.083313 431.469879,342.274261 
	C438.565735,348.961395 438.654846,361.225128 431.658813,368.280151 
	C425.833191,374.154907 415.548096,375.236511 408.705872,370.693878 
	C401.517242,365.921326 398.630249,356.118317 402.125366,348.219543 
	C402.660553,347.009918 403.381470,345.882507 404.238892,344.417114 
z"/>
<path fill="#000000" opacity="1.000000" stroke="none" 
	d="
M476.956360,377.990631 
	C483.404388,385.487091 484.467712,394.160309 480.049500,401.223236 
	C475.976624,407.734100 467.725128,410.950745 459.965485,408.981232 
	C452.749176,407.149628 448.451141,402.245667 446.997040,395.224731 
	C445.505035,388.021179 447.549347,381.605316 453.565155,376.986298 
	C459.589691,372.360626 466.231903,372.567657 472.954803,375.263824 
	C474.310333,375.807434 475.444763,376.902252 476.956360,377.990631 
z"/>
<path fill="#000000" opacity="1.000000" stroke="none" 
	d="
M114.945053,133.827484 
	C124.173073,128.068939 133.996887,129.146606 139.964813,136.323959 
	C145.828964,143.376495 145.734085,153.549561 139.743210,160.085510 
	C132.745239,167.720184 120.730995,168.127457 113.409225,160.978195 
	C105.656715,153.408356 106.170479,142.175705 114.945053,133.827484 
z"/>
<path fill="#000000" opacity="1.000000" stroke="none" 
	d="
M153.945465,435.381287 
	C157.652283,420.800934 170.978058,414.807678 182.201065,422.289917 
	C188.897659,426.754425 191.759674,435.008301 189.333801,442.860168 
	C186.966049,450.523987 179.822937,455.508179 171.471649,455.323730 
	C163.433060,455.146210 156.850433,450.002441 154.705490,442.172607 
	C154.135895,440.093353 153.544693,437.999420 153.945465,435.381287 
z"/>
<path fill="#000000" opacity="1.000000" stroke="none" 
	d="
M229.336548,392.829041 
	C227.576736,404.422485 219.640366,410.561340 208.623871,409.286255 
	C199.399948,408.218658 192.588684,399.757385 193.328766,390.285889 
	C194.137375,379.937378 201.540039,373.237244 211.877823,373.497162 
	C222.422638,373.762299 229.152496,381.042084 229.336548,392.829041 
z"/>
<path fill="#000000" opacity="1.000000" stroke="none" 
	d="
M374.171936,130.754272 
	C385.521820,128.406235 395.056610,134.085052 397.142853,144.112488 
	C399.297119,154.466843 393.074493,163.601990 382.345703,165.835434 
	C375.084503,167.347031 367.030365,163.355988 363.559113,156.526154 
	C359.856812,149.241776 361.283844,140.135971 366.977539,134.920135 
	C368.959686,133.104355 371.188843,131.666641 374.171936,130.754272 
z"/>
<path fill="#000000" opacity="1.000000" stroke="none" 
	d="
M103.404678,183.497864 
	C109.538956,190.947021 107.199425,200.498856 99.164085,202.270248 
	C93.921562,203.425964 89.044174,201.470016 86.728188,197.283157 
	C84.528831,193.307129 85.403336,187.134979 88.624275,183.900650 
	C92.427467,180.081680 97.301155,179.859589 103.404678,183.497864 
z"/>
<path fill="#000000" opacity="1.000000" stroke="none" 
	d="
M189.934479,356.032349 
	C183.812637,359.922333 177.891571,359.083740 174.234085,354.097046 
	C170.928497,349.590118 171.793701,342.956573 176.171509,339.242950 
	C180.417862,335.640778 187.139755,336.100983 191.105011,340.265320 
	C195.401352,344.777374 195.090683,350.224670 189.934479,356.032349 
z"/>
<path fill="#000000" opacity="1.000000" stroke="none" 
	d="
M206.714325,160.755814 
	C204.634384,153.626526 206.204880,148.594452 211.006836,146.075058 
	C215.704437,143.610397 221.774734,144.889191 224.964569,149.015457 
	C228.732529,153.889557 227.803177,160.783340 222.868057,164.566788 
	C217.998413,168.300049 211.232468,166.843246 206.714325,160.755814 
z"/>
<path fill="#000000" opacity="1.000000" stroke="none" 
	d="
M483.696411,347.148102 
	C485.225311,340.452454 488.099823,337.330963 493.319031,336.877563 
	C497.765991,336.491211 501.594025,337.994232 503.841492,342.079468 
	C506.209839,346.384460 506.053162,350.684875 502.968445,354.677521 
	C499.901733,358.646912 495.598907,359.269989 491.261383,358.041351 
	C486.269440,356.627380 483.739471,352.848907 483.696411,347.148102 
z"/>
<path fill="#000000" opacity="1.000000" stroke="none" 
	d="
M212.877106,457.432800 
	C219.985245,456.144470 225.027573,458.989868 226.875748,464.980530 
	C228.346634,469.748291 225.466858,475.812286 220.797745,477.779144 
	C215.424133,480.042755 209.524353,477.907349 206.773697,472.703156 
	C203.679535,466.849091 205.935989,460.877014 212.877106,457.432800 
z"/>
<path fill="#000000" opacity="1.000000" stroke="none" 
	d="
M401.256409,183.025177 
	C407.649902,179.923111 412.327759,180.518188 415.975037,184.625336 
	C418.756470,187.757446 419.277802,193.458984 417.125824,197.210999 
	C414.119751,202.452164 407.090790,204.225098 402.011230,201.023407 
	C396.727478,197.693008 395.227112,191.025055 398.658081,185.865311 
	C399.292511,184.911163 400.176147,184.122711 401.256409,183.025177 
z"/>
<path fill="#000000" opacity="1.000000" stroke="none" 
	d="
M363.902008,386.453827 
	C363.548737,377.700043 367.958527,372.447754 374.953979,372.777039 
	C381.184814,373.070343 385.859070,378.600372 385.304993,385.023193 
	C384.911194,389.588043 381.305450,393.597870 376.946625,394.318207 
	C370.789703,395.335724 367.041687,393.176514 363.902008,386.453827 
z"/>
<path fill="#000000" opacity="1.000000" stroke="none" 
	d="
M383.906372,66.529839 
	C386.427307,73.146805 384.993805,78.317474 380.141998,81.172890 
	C376.050201,83.581032 370.064423,82.746552 366.907318,79.327827 
	C362.946655,75.038963 362.603760,69.297249 366.041321,64.827263 
	C370.567078,58.942348 378.192902,59.528057 383.906372,66.529839 
z"/>
<path fill="#000000" opacity="1.000000" stroke="none" 
	d="
M424.592468,221.528442 
	C426.294739,225.193008 426.149963,228.384979 423.374603,230.945740 
	C421.365997,232.799042 418.925537,233.779892 416.080811,232.672745 
	C412.858795,231.418777 410.871155,229.223038 410.718018,225.668335 
	C410.572479,222.290619 412.344635,220.012802 415.234863,218.608536 
	C418.993408,216.782410 421.928192,218.246384 424.592468,221.528442 
z"/>
<path fill="#000000" opacity="1.000000" stroke="none" 
	d="
M82.716568,218.326721 
	C88.641235,217.681091 91.889999,219.685318 92.622536,224.359024 
	C93.241844,228.310272 91.475693,231.043762 87.721985,232.490692 
	C83.525337,234.108353 80.578407,232.338150 78.551170,228.838486 
	C76.385735,225.100250 77.733971,221.738617 82.716568,218.326721 
z"/>
<path fill="#000000" opacity="1.000000" stroke="none" 
	d="
M242.229980,480.396729 
	C241.340973,475.572144 243.314423,472.493835 247.342316,471.052887 
	C250.617477,469.881287 253.571365,471.021576 255.614090,473.964905 
	C257.767853,477.068146 257.727966,480.147034 255.322037,483.121368 
	C252.364838,486.777222 245.064590,487.331085 242.229980,480.396729 
z"/>
<path fill="#000000" opacity="1.000000" stroke="none" 
	d="
M334.569397,390.947205 
	C337.138641,387.292297 340.238403,385.698090 344.197571,387.283813 
	C347.426239,388.576965 349.180237,391.384705 348.898193,394.752441 
	C348.601624,398.293671 346.505188,400.836273 342.769836,401.656403 
	C337.056000,402.910889 333.006927,397.928162 334.569397,390.947205 
z"/>
<path fill="#000000" opacity="1.000000" stroke="none" 
	d="
M341.070679,68.873856 
	C334.980011,66.800247 332.450317,62.884399 334.257599,58.617577 
	C335.591492,55.468361 337.960632,53.566631 341.562286,53.724945 
	C345.109039,53.880840 347.310120,55.801807 348.513062,59.093292 
	C349.737854,62.444504 348.246582,64.838715 345.941864,66.983101 
	C344.686890,68.150749 343.102753,68.623894 341.070679,68.873856 
z"/>
<path fill="#000000" opacity="1.000000" stroke="none" 
	d="
M175.392822,306.995178 
	C179.276718,309.240326 181.213577,312.185730 179.805725,316.282013 
	C178.607819,319.767517 175.931320,321.562347 172.109955,321.338562 
	C168.471619,321.125488 166.322128,319.026794 165.338989,315.713165 
	C163.761612,310.396820 168.095810,306.467834 175.392822,306.995178 
z"/>
<path fill="#000000" opacity="1.000000" stroke="none" 
	d="
M244.490875,150.285431 
	C241.919083,146.543289 241.861588,143.086990 244.752777,140.054657 
	C247.153992,137.536224 250.246796,136.997360 253.364120,138.726608 
	C256.384033,140.401825 257.789398,143.089493 257.303467,146.595688 
	C256.495850,152.422974 250.513824,154.315750 244.490875,150.285431 
z"/>
<path fill="#000000" opacity="1.000000" stroke="none" 
	d="
M502.706116,320.879089 
	C498.977234,318.525116 497.020813,315.727600 498.579498,311.557159 
	C499.727417,308.485809 501.870789,306.764832 505.296204,306.654236 
	C509.244751,306.526794 511.465057,308.741638 512.730713,312.056183 
	C514.807678,317.495056 510.263550,321.669952 502.706116,320.879089 
z"/>
</svg>