<?xml version="1.0" standalone="no"?>
<!DOCTYPE svg PUBLIC "-//W3C//DTD SVG 20010904//EN"
 "http://www.w3.org/TR/2001/REC-SVG-20010904/DTD/svg10.dtd">
<svg version="1.0" xmlns="http://www.w3.org/2000/svg"
 width="3463.000000pt" height="1048.000000pt" viewBox="0 0 3463.000000 1048.000000"
 preserveAspectRatio="xMidYMid meet">

<g transform="translate(0.000000,1048.000000) scale(0.100000,-0.100000)"
fill="#000000" stroke="none">
<path d="M6435 6605 c-30 -30 -31 -54 -4 -89 41 -52 119 -25 119 42 0 66 -69
94 -115 47z"/>
<path d="M5532 6549 c-56 -11 -137 -56 -168 -92 -55 -65 -78 -127 -78 -207 1
-122 61 -222 168 -278 44 -23 63 -27 141 -27 75 0 97 4 135 24 61 32 107 76
138 136 23 43 27 62 27 140 0 75 -4 97 -24 135 -48 93 -119 148 -219 169 -59
12 -60 12 -120 0z"/>
<path d="M6784 6553 c-40 -8 -69 -50 -69 -100 0 -38 5 -49 33 -74 35 -31 93
-39 122 -16 49 38 61 87 34 138 -13 27 -69 62 -91 58 -4 -1 -18 -4 -29 -6z"/>
<path d="M4798 6326 c-26 -7 -55 -19 -65 -26 -106 -80 -144 -179 -113 -292 28
-98 135 -178 239 -178 156 0 283 147 251 293 -22 105 -89 179 -184 204 -60 15
-67 15 -128 -1z"/>
<path d="M6277 6326 c-113 -31 -187 -126 -187 -240 1 -191 191 -313 358 -230
154 76 190 266 75 394 -65 73 -156 101 -246 76z"/>
<path d="M7163 6295 c-126 -76 -100 -268 43 -315 79 -27 181 21 214 100 17 42
8 134 -17 168 -56 76 -158 96 -240 47z"/>
<path d="M7555 5851 c-98 -44 -155 -130 -155 -234 0 -141 105 -249 244 -250
145 -1 255 106 256 248 0 143 -110 255 -250 255 -32 0 -72 -8 -95 -19z"/>
<path d="M4239 5837 c-55 -37 -79 -81 -79 -147 0 -87 52 -151 136 -170 151
-34 268 138 181 267 -49 72 -168 98 -238 50z"/>
<path d="M6767 5835 c-140 -96 -76 -316 92 -318 132 -1 213 116 166 239 -26
69 -80 104 -159 104 -49 0 -69 -5 -99 -25z"/>
<path d="M29910 5851 c-111 -36 -180 -125 -180 -231 0 -242 332 -325 456 -114
23 39 28 59 28 113 0 97 -44 170 -128 213 -43 22 -136 32 -176 19z"/>
<path d="M10381 5819 c-287 -56 -454 -249 -488 -564 l-8 -70 -92 -3 -93 -3 0
-184 0 -184 93 -3 92 -3 3 -612 2 -613 220 0 220 0 2 613 3 612 143 3 142 3 0
184 0 184 -142 3 -143 3 2 47 c3 112 67 207 149 223 46 8 141 8 186 0 l35 -7
7 99 c3 54 9 134 12 179 l6 81 -70 11 c-81 14 -216 14 -281 1z"/>
<path d="M22610 5434 l0 -386 -51 46 c-118 106 -266 150 -479 143 -213 -7
-358 -60 -504 -184 -327 -280 -369 -872 -86 -1228 83 -104 230 -200 380 -247
66 -20 95 -23 235 -23 139 0 170 3 235 23 84 26 193 87 239 133 l31 31 0 -81
0 -81 220 0 220 0 0 1120 0 1120 -220 0 -220 0 0 -386z m-247 -611 c125 -47
219 -156 252 -294 52 -220 -26 -438 -190 -534 -107 -63 -315 -74 -428 -22
-169 77 -257 222 -257 423 0 155 46 273 138 355 121 106 314 135 485 72z"/>
<path d="M28860 5435 c0 -212 -2 -385 -5 -385 -3 0 -25 18 -48 41 -55 53 -177
113 -273 134 -105 24 -317 16 -424 -15 -133 -39 -225 -94 -326 -195 -79 -79
-96 -103 -141 -195 -28 -58 -58 -132 -67 -166 -26 -98 -36 -246 -25 -359 13
-135 32 -201 90 -320 77 -159 195 -277 352 -351 123 -58 182 -69 362 -69 141
0 168 3 230 23 86 29 165 72 228 124 l47 39 0 -80 0 -81 215 0 215 0 0 1120 0
1120 -215 0 -215 0 0 -385z m-355 -585 c181 -26 315 -152 355 -331 18 -82 8
-249 -19 -319 -65 -167 -212 -260 -411 -260 -271 0 -450 184 -450 462 0 228
128 398 332 443 78 17 104 17 193 5z"/>
<path d="M5543 5780 c-44 -18 -56 -77 -23 -110 41 -41 120 -12 120 44 0 47
-53 83 -97 66z"/>
<path d="M5194 5710 c-32 -13 -64 -59 -64 -92 0 -36 24 -84 49 -98 57 -30 142
8 156 69 10 45 -18 99 -59 116 -40 17 -52 17 -82 5z"/>
<path d="M16310 5455 l0 -215 -100 0 -100 0 0 -195 0 -195 100 0 100 0 0 -498
c0 -408 3 -508 15 -555 38 -145 128 -213 322 -242 102 -15 286 -20 367 -9 l46
7 0 182 0 183 -97 4 c-111 4 -146 17 -179 65 -37 55 -44 138 -44 511 l0 352
165 0 165 0 0 195 0 195 -165 0 -165 0 0 215 0 215 -215 0 -215 0 0 -215z"/>
<path d="M4735 5500 c-37 -12 -79 -50 -101 -92 -21 -40 -21 -116 -1 -155 21
-39 71 -81 105 -89 15 -3 33 -8 40 -10 30 -9 102 19 136 54 105 105 43 281
-105 297 -24 2 -57 0 -74 -5z"/>
<path d="M3994 5350 c-66 -27 -85 -120 -35 -171 56 -55 159 -26 176 50 10 45
-18 99 -59 116 -40 17 -52 17 -82 5z"/>
<path d="M7104 5346 c-38 -17 -68 -75 -59 -116 9 -41 58 -80 101 -80 46 0 70
14 89 50 32 61 11 120 -51 146 -40 17 -41 17 -80 0z"/>
<path d="M11790 5220 c-152 -32 -237 -75 -332 -168 l-58 -56 0 107 0 107 -220
0 -220 0 0 -815 0 -815 219 0 219 0 5 418 c4 445 6 463 58 567 30 59 131 155
201 189 62 30 178 56 249 56 l49 0 0 215 0 215 -42 -1 c-24 0 -81 -9 -128 -19z"/>
<path d="M12895 5233 c-90 -11 -185 -37 -256 -68 -262 -115 -454 -345 -509
-610 -18 -82 -15 -254 4 -344 33 -152 128 -314 249 -427 229 -214 578 -293
878 -198 327 103 539 335 610 665 15 72 7 274 -15 352 -88 317 -380 572 -712
622 -93 14 -181 17 -249 8z m287 -425 c121 -58 200 -152 240 -282 17 -55 20
-85 15 -160 -13 -248 -175 -419 -411 -434 -186 -12 -344 75 -424 234 -117 234
-34 515 188 633 79 42 120 51 227 47 81 -3 100 -7 165 -38z"/>
<path d="M14978 5220 c-89 -22 -202 -76 -251 -120 -19 -16 -37 -30 -41 -30 -3
0 -6 32 -6 70 l0 70 -220 0 -220 0 0 -815 0 -815 220 0 220 0 0 458 c0 251 5
491 10 532 14 109 59 192 130 241 72 50 122 63 217 57 143 -9 222 -74 259
-213 11 -39 14 -168 14 -562 l0 -513 225 0 225 0 0 539 c0 592 -4 645 -59 780
-91 225 -250 324 -536 336 -88 4 -126 1 -187 -15z"/>
<path d="M18112 5229 c-152 -18 -314 -75 -427 -150 -94 -63 -213 -191 -258
-277 -135 -258 -123 -642 27 -877 70 -109 218 -235 338 -288 307 -136 640
-127 905 25 80 46 175 127 242 207 l41 49 -166 96 c-91 53 -171 96 -176 96 -5
0 -35 -22 -65 -49 -114 -102 -224 -138 -386 -128 -96 6 -209 38 -272 77 -65
40 -135 144 -135 201 0 19 16 19 639 19 l640 0 7 57 c9 72 -2 246 -21 327 -35
152 -99 262 -220 381 -132 130 -309 213 -500 235 -100 11 -109 11 -213 -1z
m283 -423 c102 -50 176 -139 200 -238 l7 -28 -406 0 c-465 0 -429 -9 -375 98
70 140 216 215 407 208 83 -3 100 -7 167 -40z"/>
<path d="M20160 5219 c-93 -24 -180 -65 -242 -112 l-48 -37 0 70 0 70 -225 0
-225 0 0 -815 0 -815 225 0 225 0 0 504 c0 482 1 507 21 571 27 87 85 151 170
190 55 25 70 27 148 23 144 -7 223 -63 262 -189 18 -56 19 -98 19 -580 l0
-519 225 0 226 0 -3 583 c-4 570 -4 584 -26 655 -60 195 -160 316 -310 372
-131 50 -316 62 -442 29z"/>
<path d="M24271 5229 c-111 -22 -209 -65 -289 -128 l-52 -41 0 75 0 75 -220 0
-220 0 0 -1075 0 -1075 220 0 220 0 0 341 0 341 51 -46 c65 -58 170 -109 273
-131 118 -26 322 -17 436 20 322 102 526 384 547 756 17 298 -100 584 -299
734 -115 86 -190 120 -331 150 -74 16 -264 18 -336 4z m284 -417 c162 -76 246
-220 246 -422 0 -122 -25 -206 -86 -289 -99 -135 -271 -194 -456 -156 -140 28
-235 99 -294 219 -45 90 -59 168 -51 278 13 188 95 310 255 377 110 46 278 43
386 -7z"/>
<path d="M26300 5229 c-364 -42 -659 -275 -747 -589 -14 -52 -18 -102 -18
-250 0 -164 3 -194 23 -265 61 -210 201 -374 407 -476 321 -159 699 -141 978
45 56 38 173 149 207 196 l20 28 -164 96 c-91 53 -169 96 -174 96 -5 0 -29
-17 -53 -38 -131 -115 -223 -148 -389 -140 -188 9 -327 79 -387 197 -59 112
-127 101 607 101 l640 0 6 26 c10 41 -4 302 -20 364 -39 154 -112 277 -230
387 -132 123 -306 202 -491 222 -104 12 -108 12 -215 0z m202 -390 c107 -23
216 -111 264 -213 44 -94 79 -86 -382 -86 l-406 0 7 33 c26 118 147 228 290
263 64 16 160 17 227 3z"/>
<path d="M31190 5226 c-137 -31 -213 -65 -317 -143 -309 -232 -405 -720 -218
-1108 88 -184 254 -326 455 -391 70 -22 109 -27 226 -32 120 -4 152 -1 225 17
104 26 196 72 260 129 l49 44 0 -81 0 -81 220 0 220 0 0 815 0 815 -220 0
-220 0 0 -81 0 -81 -51 46 c-65 58 -173 111 -268 131 -86 18 -281 18 -361 1z
m430 -403 c159 -63 252 -196 267 -384 12 -150 -29 -280 -116 -372 -90 -95
-197 -132 -360 -125 -82 3 -106 8 -163 35 -112 53 -202 159 -234 275 -8 29
-15 95 -15 145 -2 246 126 410 351 453 73 14 197 2 270 -27z"/>
<path d="M29757 5203 c-4 -3 -7 -370 -7 -815 l0 -808 225 0 225 0 0 815 0 815
-218 0 c-120 0 -222 -3 -225 -7z"/>
<path d="M7730 5185 c-105 -29 -186 -109 -216 -212 -41 -142 30 -299 165 -365
67 -33 196 -33 265 1 61 30 117 86 147 149 36 72 34 187 -4 264 -65 132 -216
201 -357 163z"/>
<path d="M4375 5055 c-5 -2 -26 -6 -46 -9 -54 -9 -125 -68 -156 -129 -107
-210 125 -445 334 -338 225 114 168 440 -82 474 -22 3 -44 4 -50 2z"/>
<path d="M3893 4980 c-68 -27 -48 -133 25 -133 42 0 72 28 72 68 0 49 -51 83
-97 65z"/>
<path d="M7223 4980 c-68 -27 -48 -133 25 -133 42 0 72 28 72 68 0 49 -51 83
-97 65z"/>
<path d="M7543 4369 c-49 -24 -109 -87 -129 -135 -17 -41 -18 -123 -2 -176 15
-51 77 -121 131 -147 121 -59 278 0 337 126 57 121 -10 286 -136 339 -51 21
-151 18 -201 -7z"/>
<path d="M4165 4356 c-72 -18 -107 -39 -156 -94 -135 -150 -91 -391 89 -479
49 -24 69 -28 142 -28 72 0 92 4 136 27 147 77 209 252 142 399 -36 77 -71
114 -141 148 -74 35 -144 44 -212 27z"/>
<path d="M4752 4084 c-16 -11 -22 -25 -22 -54 0 -67 68 -93 115 -45 30 30 31
54 4 89 -24 30 -63 34 -97 10z"/>
<path d="M8075 4080 c-40 -44 -7 -120 52 -120 37 0 76 45 69 78 -14 57 -85 82
-121 42z"/>
<path d="M4864 3790 c-36 -14 -64 -59 -64 -102 0 -79 94 -127 159 -82 65 46
57 145 -14 179 -37 17 -50 18 -81 5z"/>
<path d="M7970 3783 c-68 -35 -80 -105 -26 -159 44 -44 100 -47 139 -8 33 32
41 57 33 98 -13 67 -84 100 -146 69z"/>
<path d="M7181 3773 c-19 -10 -48 -35 -65 -56 -27 -34 -31 -46 -31 -102 0 -56
4 -68 31 -102 57 -72 138 -91 220 -54 57 26 87 72 92 142 5 69 -16 119 -65
156 -46 35 -132 43 -182 16z"/>
<path d="M4310 3567 c-19 -6 -58 -34 -87 -62 -67 -65 -90 -136 -73 -220 25
-122 125 -207 243 -208 73 0 120 18 175 67 57 52 86 124 80 201 -9 102 -59
173 -153 216 -45 21 -130 23 -185 6z"/>
<path d="M6784 3433 c-34 -7 -65 -47 -71 -92 -5 -36 -2 -44 30 -76 45 -45 100
-49 140 -9 33 32 41 57 33 98 -11 56 -70 92 -132 79z"/>
<path d="M5095 3407 c-117 -66 -112 -248 8 -306 134 -65 277 40 254 186 -19
117 -156 180 -262 120z"/>
<path d="M7644 3416 c-105 -46 -136 -187 -61 -273 109 -124 307 -51 307 113
-1 127 -129 211 -246 160z"/>
<path d="M6435 3275 c-30 -30 -31 -54 -4 -89 41 -52 119 -25 119 42 0 66 -69
94 -115 47z"/>
<path d="M5647 3106 c-115 -31 -187 -124 -187 -241 0 -106 51 -188 145 -231
164 -77 354 44 355 226 0 164 -158 288 -313 246z"/>
<path d="M7118 3106 c-188 -52 -247 -287 -107 -424 51 -50 95 -67 174 -67 103
0 180 46 226 137 97 189 -87 412 -293 354z"/>
<path d="M6353 2991 c-91 -31 -163 -105 -194 -198 -17 -53 -7 -170 19 -224
111 -227 438 -231 554 -6 15 30 23 66 26 125 4 77 2 87 -27 146 -38 78 -90
127 -165 155 -69 26 -143 27 -213 2z"/>
<path d="M4715 2954 c-67 -35 -97 -83 -97 -154 0 -104 70 -175 171 -175 155 0
233 168 134 286 -48 57 -144 77 -208 43z"/>
<path d="M5194 2590 c-34 -13 -64 -59 -64 -97 0 -49 54 -103 103 -103 44 0 93
39 102 80 9 42 -21 99 -61 116 -38 16 -50 16 -80 4z"/>
<path d="M5522 2443 c-52 -44 -24 -123 43 -123 43 0 79 41 70 80 -7 32 -40 60
-70 60 -13 0 -32 -8 -43 -17z"/>
</g>
</svg>
